<?xml version="1.0" encoding="iso-8859-1"?>
<!-- Generator: Adobe Illustrator 19.0.0, SVG Export Plug-In . SVG Version: 6.00 Build 0)  -->
<svg version="1.1" id="Layer_1" xmlns="http://www.w3.org/2000/svg" xmlns:xlink="http://www.w3.org/1999/xlink" x="0px" y="0px"
	 viewBox="0 0 512 512" style="enable-background:new 0 0 512 512;" xml:space="preserve">
<path d="M256,0C114.6,0,0,114.6,0,256s114.6,256,256,256s256-114.6,256-256S397.4,0,256,0z M256,470.6
	c-118.2,0-214.6-96.4-214.6-214.6S137.8,41.4,256,41.4S470.6,137.8,470.6,256S374.2,470.6,256,470.6z"/>
<path d="M256,128.5c-70.4,0-127.5,57.1-127.5,127.5S185.6,383.5,256,383.5S383.5,326.4,383.5,256S326.4,128.5,256,128.5z"/>
<path d="M256,192.5c-35.1,0-63.5,28.4-63.5,63.5s28.4,63.5,63.5,63.5s63.5-28.4,63.5-63.5S291.1,192.5,256,192.5z"/>
<path d="M192.5,256c0-35.1,28.4-63.5,63.5-63.5v127C220.9,319.5,192.5,291.1,192.5,256z"/>
<path d="M256,192.5c35.1,0,63.5,28.4,63.5,63.5H192.5C192.5,220.9,220.9,192.5,256,192.5z"/>
<path d="M319.5,256c0,35.1-28.4,63.5-63.5,63.5v-127C291.1,192.5,319.5,220.9,319.5,256z"/>
<path d="M256,319.5c-35.1,0-63.5-28.4-63.5-63.5h127C319.5,291.1,291.1,319.5,256,319.5z"/>
<path d="M128.5,256c0-70.4,57.1-127.5,127.5-127.5c17.7,0,34.6,3.5,50.1,9.8c-1.2,6.3-2.8,12.4-4.8,18.3
	c-14.2-5.8-29.5-8.9-45.3-8.9c-53.9,0-97.5,43.6-97.5,97.5c0,15.8,3.1,31.1,8.9,45.3c-5.9,1.9-12,3.6-18.3,4.8
	C132,290.6,128.5,273.7,128.5,256z"/>
<path d="M383.5,256c0,70.4-57.1,127.5-127.5,127.5c-17.7,0-34.6-3.5-50.1-9.8c1.2-6.3,2.8-12.4,4.8-18.3
	c14.2,5.8,29.5,8.9,45.3,8.9c53.9,0,97.5-43.6,97.5-97.5c0-15.8-3.1-31.1-8.9-45.3c5.9-1.9,12-3.6,18.3-4.8
	C380,221.4,383.5,238.3,383.5,256z"/>
<path d="M192.5,256c0-35.1,28.4-63.5,63.5-63.5c8.8,0,17.2,1.8,24.8,5c-0.6,3.2-1.2,6.4-1.7,9.7
	c-7.1-2.9-14.7-4.5-22.6-4.5c-26.5,0-48,21.5-48,48c0,7.9,1.6,15.5,4.5,22.6c-3.3,0.5-6.5,1.1-9.7,1.7
	C194.3,273.2,192.5,264.8,192.5,256z"/>
</svg>
